<?xml version="1.0" encoding="UTF-8"?>
<svg xmlns="http://www.w3.org/2000/svg" xmlns:xlink="http://www.w3.org/1999/xlink" viewBox="0 0 40 40" version="1.1" width="40px" height="40px">
<g id="surface1">
<path style=" fill:#98CCFD;" d="M 30.5 38.5 C 34.917969 38.5 38.5 34.917969 38.5 30.5 L 38.5 9.5 C 38.5 5.082031 34.917969 1.5 30.5 1.5 L 9.5 1.5 C 5.082031 1.5 1.5 5.082031 1.5 9.5 L 1.5 30.5 C 1.5 34.917969 5.082031 38.5 9.5 38.5 Z "/>
<path style=" fill:#98CCFD;" d="M 3.398438 4.332031 C 2.21875 5.726563 1.5 7.527344 1.5 9.5 L 1.5 30.5 C 1.5 34.917969 5.082031 38.5 9.5 38.5 L 30.5 38.5 C 34.917969 38.5 38.5 34.917969 38.5 30.5 L 38.5 9.5 C 38.5 8.996094 38.449219 8.507813 38.359375 8.03125 C 32.136719 4.21875 24.832031 2 17 2 C 12.230469 2 7.65625 2.832031 3.398438 4.332031 Z "/>
<path style=" fill:#98CCFD;" d="M 1.503906 9.402344 C 1.503906 9.4375 1.5 9.46875 1.5 9.5 L 1.5 30.5 C 1.5 34.917969 5.082031 38.5 9.5 38.5 L 30.5 38.5 C 34.917969 38.5 38.5 34.917969 38.5 30.5 L 38.5 12.898438 C 32.4375 8.558594 25.019531 6 17 6 C 11.464844 6 6.21875 7.226563 1.503906 9.402344 Z "/>
<path style=" fill:#B6DCFE;" d="M 1.5 13.878906 L 1.5 30.5 C 1.5 34.917969 5.082031 38.5 9.5 38.5 L 30.5 38.5 C 34.917969 38.5 38.5 34.917969 38.5 30.5 L 38.5 17.980469 C 32.722656 13.011719 25.21875 10 17 10 C 11.394531 10 6.125 11.414063 1.5 13.878906 Z "/>
<path style=" fill:#B6DCFE;" d="M 17 14 C 11.296875 14 5.984375 15.664063 1.5 18.507813 L 1.5 30.5 C 1.5 34.917969 5.082031 38.5 9.5 38.5 L 30.5 38.5 C 34.917969 38.5 38.5 34.917969 38.5 30.5 L 38.5 23.566406 C 33.195313 17.699219 25.535156 14 17 14 Z "/>
<path style=" fill:#B6DCFE;" d="M 17 18 C 11.140625 18 5.761719 20.03125 1.5 23.410156 L 1.5 30.5 C 1.5 34.917969 5.082031 38.5 9.5 38.5 L 30.5 38.5 C 34.917969 38.5 38.5 34.917969 38.5 30.5 L 38.5 30.261719 C 34.144531 22.925781 26.152344 18 17 18 Z "/>
<path style=" fill:#B6DCFE;" d="M 17 22 C 10.855469 22 5.339844 24.652344 1.5 28.859375 L 1.5 30.5 C 1.5 34.917969 5.082031 38.5 9.5 38.5 L 30.5 38.5 C 32.964844 38.5 35.167969 37.382813 36.636719 35.628906 C 33.648438 27.675781 26 22 17 22 Z "/>
<path style=" fill:#DFF0FE;" d="M 30.5 38.5 C 31.457031 38.5 32.371094 38.324219 33.222656 38.015625 C 31.085938 31.066406 24.648438 26 17 26 C 10.8125 26 5.40625 29.308594 2.433594 34.246094 C 3.777344 36.777344 6.4375 38.5 9.5 38.5 Z "/>
<path style=" fill:#DFF0FE;" d="M 17 30 C 11.863281 30 7.425781 32.984375 5.316406 37.308594 C 6.535156 38.058594 7.964844 38.5 9.5 38.5 L 29.183594 38.5 C 27.351563 33.542969 22.59375 30 17 30 Z "/>
<path style=" fill:#DFF0FE;" d="M 17 34 C 13.679688 34 10.808594 35.8125 9.246094 38.488281 C 9.332031 38.488281 9.414063 38.5 9.5 38.5 L 24.761719 38.5 C 23.203125 35.816406 20.324219 34 17 34 Z "/>
<path style=" fill:#4788C7;" d="M 31 2 C 34.859375 2 38 5.140625 38 9 L 38 31 C 38 34.859375 34.859375 38 31 38 L 9 38 C 5.140625 38 2 34.859375 2 31 L 2 9 C 2 5.140625 5.140625 2 9 2 L 31 2 M 31 1 L 9 1 C 4.582031 1 1 4.582031 1 9 L 1 31 C 1 35.417969 4.582031 39 9 39 L 31 39 C 35.417969 39 39 35.417969 39 31 L 39 9 C 39 4.582031 35.417969 1 31 1 Z "/>
<path style=" fill:#FFFFFF;" d="M 29 12.5 C 29 13.328125 28.328125 14 27.5 14 C 26.671875 14 26 13.328125 26 12.5 C 26 11.671875 26.671875 11 27.5 11 C 28.328125 11 29 11.671875 29 12.5 Z "/>
<path style="fill:none;stroke-width:2;stroke-linecap:butt;stroke-linejoin:miter;stroke:#FFFFFF;stroke-opacity:1;stroke-miterlimit:10;" d="M 26 20 C 26 23.3125 23.3125 26 20 26 C 16.6875 26 14 23.3125 14 20 C 14 16.6875 16.6875 14 20 14 C 23.3125 14 26 16.6875 26 20 Z "/>
<path style="fill:none;stroke-width:2;stroke-linecap:butt;stroke-linejoin:miter;stroke:#FFFFFF;stroke-opacity:1;stroke-miterlimit:10;" d="M 33 14.5 C 33 10.359375 29.640625 7 25.5 7 C 23.324219 7 16.675781 7 14.5 7 C 10.359375 7 7 10.359375 7 14.5 C 7 16.675781 7 23.324219 7 25.5 C 7 29.640625 10.359375 33 14.5 33 C 16.675781 33 23.324219 33 25.5 33 C 29.640625 33 33 29.640625 33 25.5 C 33 23.324219 33 16.675781 33 14.5 Z "/>
</g>
</svg>
